<?xml version="1.0" ?><svg viewBox="0 0 64 64" xmlns="http://www.w3.org/2000/svg"><defs><style>.cls-1{fill:#dd5891;}.cls-2{fill:#f0f4f7;}.cls-3{fill:#e0e9ee;}.cls-4{fill:#748a95;}.cls-5{fill:#617880;}.cls-6{fill:#efc89d;}.cls-7{fill:#ebb87f;}.cls-8{fill:#d9387c;}.cls-9{fill:#172335;}</style></defs><g id="Magician"><path class="cls-1" d="M43.78,51.75a7.19,7.19,0,1,1,11.12-6h0a7.19,7.19,0,0,1-3.25,6l-3.93,1.62Z" id="path327974-7"/><path class="cls-2" d="M13.74,48.42a15,15,0,0,0-3.58,5.17c-.53,1.26.61,2.41,2,2.41h25c1.37,0,2.51-1.15,2-2.41a15.08,15.08,0,0,0-3.58-5.17Z" id="path57980-6-6"/><path class="cls-3" d="M31.53,48.42a15.08,15.08,0,0,1,3.58,5.17c.53,1.26-.61,2.41-2,2.41h4c1.37,0,2.51-1.15,2-2.41a15.08,15.08,0,0,0-3.58-5.17Z" id="path110357-1"/><path class="cls-4" d="M34.27,38A9,9,0,0,1,38,45c0,3.25-4.56,4.35-9.93,7a6.56,6.56,0,0,1-6.93,0c-5.38-2.7-9.93-3.8-9.93-7A9,9,0,0,1,15,38Z" id="path56511-7-5"/><path class="cls-5" d="M30.27,40A9,9,0,0,1,34,47c0,1.44-.9,2.46-2.37,3.39C35.34,48.68,38,47.45,38,45a9,9,0,0,0-3.76-7Z" id="path101501-5"/><path class="cls-6" d="M34.57,35.45a17.39,17.39,0,0,1-.85,4.6c-1.64,4.12-5.09,7.77-9.09,7.77s-7.44-3.65-9.08-7.77a16.62,16.62,0,0,1-.85-4.6l9.93-2.64Z" id="path41635-0-4"/><path class="cls-7" d="M31.85,35.45a17,17,0,0,1-.85,4.6c-1.45,3.64-4.32,6.92-7.73,7.63a6.9,6.9,0,0,0,1.36.14c4,0,7.45-3.65,9.09-7.77a17.39,17.39,0,0,0,.85-4.6Z" id="path92800-6"/><path class="cls-1" d="M30.73,8a1.06,1.06,0,0,0-.35.09l-4.56,2.06a10.94,10.94,0,0,0-5.36,5.31L15.57,26l9.05,2.47L33.67,26l-4.8-10.18a3.32,3.32,0,0,1,.56-3.65L31.6,9.79A1.06,1.06,0,0,0,30.73,8Z" id="rect49460-5-5"/><path class="cls-2" d="M15.57,26l-2.39,5.14,11.45,2,11.46-2L33.67,26Z" id="path54734-5-6"/><path class="cls-4" d="M27.19,28.54A2.57,2.57,0,1,1,24.62,26,2.57,2.57,0,0,1,27.19,28.54Z" id="path54838-4-9"/><path class="cls-1" d="M9.16,34a4.33,4.33,0,0,1,4.1-2.89H36A4.34,4.34,0,0,1,40.11,34a1.16,1.16,0,0,1-1.23,1.45H10.39A1.15,1.15,0,0,1,9.16,34Z" id="rect40308-61-3"/><path class="cls-8" d="M32,31.11A4.33,4.33,0,0,1,36.11,34a1.16,1.16,0,0,1-1.23,1.45h4A1.16,1.16,0,0,0,40.11,34,4.33,4.33,0,0,0,36,31.11Z" id="path82078-7"/><path class="cls-8" d="M33.67,26l-4.8-10.18a3.32,3.32,0,0,1,.56-3.65L31.6,9.79A1.07,1.07,0,0,0,30.9,8h-.17a1.06,1.06,0,0,0-.35.09L27.87,9.24a1.09,1.09,0,0,1-.27.55l-2.17,2.35a3.32,3.32,0,0,0-.56,3.65L29.67,26Z" id="path84713-4"/><path class="cls-3" d="M36.09,31.11,33.67,26h-4l2.42,5.14Z" id="path84715-5"/><path class="cls-8" d="M51.65,51.75a7.18,7.18,0,0,0-5.94-12.91,7.18,7.18,0,0,1,1.94,12.91Z" id="path239483"/><path class="cls-4" d="M44.68,51.52h6.07a1.87,1.87,0,0,1,1.87,1.87v.74A1.87,1.87,0,0,1,50.75,56H44.68a1.86,1.86,0,0,1-1.87-1.87v-.74A1.87,1.87,0,0,1,44.68,51.52Z" id="rect328161-5"/><path class="cls-9" d="M8.22,33.67a2,2,0,0,0,.25,1.82,2.35,2.35,0,0,0,1.92,1h3.4c0,.37.08.73.13,1.07A9.82,9.82,0,0,0,10.24,45a4.39,4.39,0,0,0,1.93,3.59,18.6,18.6,0,0,0-2.94,4.67,2.52,2.52,0,0,0,.23,2.42A3.21,3.21,0,0,0,12.13,57h25a3.22,3.22,0,0,0,2.68-1.37A2.54,2.54,0,0,0,40,53.21a18.3,18.3,0,0,0-2.93-4.67A4.39,4.39,0,0,0,39,45a9.79,9.79,0,0,0-3.69-7.43c0-.34.1-.7.13-1.07h3.41a2.36,2.36,0,0,0,1.92-1,2,2,0,0,0,.25-1.82,5.34,5.34,0,0,0-4.3-3.5l-7-14.81a2.29,2.29,0,0,1,.4-2.54l2.16-2.35A2.06,2.06,0,0,0,30,7.19L25.41,9.25a11.84,11.84,0,0,0-5.85,5.8l-7,15.12A5.32,5.32,0,0,0,8.22,33.67Zm6.2,6.13c.06.21.13.43.2.62,1.54,3.87,4.87,7.77,9,8.33v3.12a9,9,0,0,1-2-.76c-1.23-.62-2.44-1.16-3.51-1.65-3.74-1.68-5.86-2.73-5.86-4.51A7.58,7.58,0,0,1,14.42,39.8ZM38.19,54a.54.54,0,0,1,0,.55,1.24,1.24,0,0,1-1,.47h-25a1.26,1.26,0,0,1-1-.47.54.54,0,0,1,0-.55,15.79,15.79,0,0,1,2.79-4.33c1,.55,2.16,1.08,3.41,1.64,1.1.49,2.24,1,3.44,1.61A8.69,8.69,0,0,0,24.63,54a8.73,8.73,0,0,0,3.92-1.09c1.2-.6,2.34-1.12,3.44-1.61s2.4-1.09,3.41-1.64A16,16,0,0,1,38.19,54ZM37,45c0,1.78-2.12,2.83-5.86,4.51-1.07.49-2.28,1-3.52,1.65a8.67,8.67,0,0,1-2,.76V48.75c4.14-.56,7.47-4.46,9-8.33.07-.19.13-.41.2-.62A7.58,7.58,0,0,1,37,45Zm-4.24-5.27c-1.42,3.55-4.49,7.14-8.16,7.14s-6.74-3.59-8.15-7.14a13.06,13.06,0,0,1-.68-3.23H33.47A14,14,0,0,1,32.79,39.68ZM16.21,27h5.22a3.47,3.47,0,0,0-.38,1.57,3.63,3.63,0,0,0,.38,1.57H14.75Zm18.3,3.14h-6.7a3.43,3.43,0,0,0,0-3.14H33Zm-8.32-1.57A1.57,1.57,0,1,1,24.62,27,1.58,1.58,0,0,1,26.19,28.54ZM21.37,15.89a9.89,9.89,0,0,1,4.87-4.82L30.83,9s.06.05,0,.11L28.7,11.46A4.27,4.27,0,0,0,28,16.21L32.09,25h-15ZM10.1,34.33h0a3.35,3.35,0,0,1,3.14-2.22H36a3.35,3.35,0,0,1,3.15,2.21.35.35,0,0,1-.29.13H10.39a.39.39,0,0,1-.29-.11Z"/><path class="cls-9" d="M55.9,45.74a8.19,8.19,0,1,0-13.63,6.1,2.85,2.85,0,0,0-.46,1.55v.74A2.88,2.88,0,0,0,44.68,57h6.07a2.88,2.88,0,0,0,2.87-2.87v-.74a2.85,2.85,0,0,0-.46-1.55A8.15,8.15,0,0,0,55.9,45.74Zm-14.37,0a6.19,6.19,0,1,1,9.95,4.89,2.93,2.93,0,0,0-.73-.11H44.68a3,3,0,0,0-.74.11A6.18,6.18,0,0,1,41.53,45.74Zm10.09,8.39a.86.86,0,0,1-.87.87H44.68a.86.86,0,0,1-.87-.87v-.74a.86.86,0,0,1,.87-.87h6.07a.86.86,0,0,1,.87.87Z"/><circle class="cls-9" cx="51.49" cy="46.87" r="1"/><circle class="cls-9" cx="45.17" cy="45.22" r="1"/><path class="cls-9" d="M54,33.55a1,1,0,0,0-1.42,0l-.24.25-.25-.25a1,1,0,0,0-1.41,0,1,1,0,0,0,0,1.41l.24.25-.24.25a1,1,0,0,0,0,1.41,1,1,0,0,0,1.41,0l.25-.25.24.25a1,1,0,0,0,.71.29,1,1,0,0,0,.71-1.7l-.25-.25L54,35A1,1,0,0,0,54,33.55Z"/><path class="cls-9" d="M52.45,24.49a1,1,0,0,0-1.42,0l-.24.25-.25-.25a1,1,0,0,0-1.41,0,1,1,0,0,0,0,1.42l.24.24-.24.25a1,1,0,0,0,0,1.41,1,1,0,0,0,1.41,0l.25-.24.24.24a1,1,0,0,0,1.42-1.41l-.25-.25.25-.24A1,1,0,0,0,52.45,24.49Z"/><path class="cls-9" d="M44.7,34.3a1,1,0,0,0,1-1V33h.35a1,1,0,0,0,0-2H45.7v-.35a1,1,0,0,0-2,0V31h-.35a1,1,0,0,0,0,2h.35v.34A1,1,0,0,0,44.7,34.3Z"/></g></svg>